<svg width="32" height="24" viewBox="0 0 32 24" fill="none" xmlns="http://www.w3.org/2000/svg">
<g clip-path="url(#clip0_13_45)">
<path d="M1.83598 0H30.1641C30.6483 0.00497077 31.1112 0.207604 31.4524 0.564006C31.7936 0.920407 31.9857 1.40188 31.987 1.90412V22.0959C31.9897 22.4812 31.8789 22.8581 31.6693 23.1762C31.6316 23.2781 31.573 23.3703 31.4974 23.4463C31.4467 23.4967 31.3887 23.5386 31.3256 23.5706C30.997 23.8581 30.581 24.0159 30.1511 24.0162H1.83598C1.35398 24.0113 0.893071 23.8105 0.552231 23.457C0.211392 23.1035 0.0178106 22.6255 0.0130615 22.1256V1.90412C0.0144077 1.40188 0.206486 0.920407 0.547689 0.564006C0.888891 0.207604 1.35174 0.00497077 1.83598 0ZM1.75785 21.2937L11.336 10.971L1.75785 2.57664V21.2937ZM12.7787 12.2593L2.54431 22.5388H29.3672L19.5886 12.2593L16.724 14.7468C16.5978 14.8555 16.4389 14.915 16.2748 14.915C16.1107 14.915 15.9518 14.8555 15.8256 14.7468L12.7787 12.2593ZM21.0079 10.9521L30.2422 21.3774V2.48481L21.0079 10.9521ZM2.6589 1.46117L16.2474 12.8832L29.237 1.46117H2.6589Z" fill="white"/>
</g>
<defs>
<clipPath id="clip0_13_45">
<rect width="32" height="24" fill="white"/>
</clipPath>
</defs>
</svg>
