<svg width="33" height="24" viewBox="0 0 33 24" fill="none" xmlns="http://www.w3.org/2000/svg">
<path d="M2.3361 0H30.6642C31.1485 0.00497077 31.6113 0.207604 31.9525 0.564006C32.2937 0.920407 32.4858 1.40188 32.4871 1.90412V22.0959C32.4899 22.4812 32.379 22.8581 32.1694 23.1762C32.1318 23.2781 32.0731 23.3703 31.9976 23.4463C31.9468 23.4967 31.8888 23.5386 31.8257 23.5706C31.4971 23.8581 31.0811 24.0159 30.6512 24.0162H2.3361C1.8541 24.0113 1.39319 23.8105 1.05235 23.457C0.711514 23.1035 0.517933 22.6255 0.513184 22.1256V1.90412C0.51453 1.40188 0.706608 0.920407 1.04781 0.564006C1.38901 0.207604 1.85186 0.00497077 2.3361 0ZM2.25798 21.2937L11.8361 10.971L2.25798 2.57664V21.2937ZM13.2788 12.2593L3.04443 22.5388H29.8674L20.0887 12.2593L17.2241 14.7468C17.0979 14.8555 16.939 14.915 16.7749 14.915C16.6108 14.915 16.4519 14.8555 16.3257 14.7468L13.2788 12.2593ZM21.508 10.9521L30.7424 21.3774V2.48481L21.508 10.9521ZM3.15902 1.46117L16.7476 12.8832L29.7371 1.46117H3.15902Z" fill="#1206FA"/>
</svg>
