<svg width="12" height="12" viewBox="0 0 12 12" fill="none" xmlns="http://www.w3.org/2000/svg">
<path d="M0.577719 4.58223H2.87722V11.9742H0.577719V4.58223ZM1.72852 0.907227C2.46352 0.907227 3.05992 1.50363 3.05992 2.23863C3.05992 2.97573 2.46352 3.57213 1.72852 3.57213C0.991419 3.57213 0.39502 2.97573 0.39502 2.23863C0.39502 1.50363 0.989319 0.907227 1.72852 0.907227ZM4.31992 11.9742H6.61522V8.31813C6.61522 7.35423 6.79792 6.41973 7.99282 6.41973C9.17092 6.41973 9.18772 7.52223 9.18772 8.38113V11.9763H11.4809V7.91913C11.4809 5.92833 11.0504 4.39743 8.72782 4.39743C7.61062 4.39743 6.86092 5.01063 6.55432 5.59233H6.52282V4.58223H4.31992V11.9742Z" fill="#1206FA"/>
</svg>
