<svg width="18" height="18" viewBox="0 0 18 18" fill="none" xmlns="http://www.w3.org/2000/svg">
<path d="M0.737628 6.07852H4.24163V17.3425H0.737628V6.07852ZM2.49123 0.478516C3.61123 0.478516 4.52003 1.38732 4.52003 2.50732C4.52003 3.63052 3.61123 4.53932 2.49123 4.53932C1.36803 4.53932 0.459229 3.63052 0.459229 2.50732C0.459229 1.38732 1.36483 0.478516 2.49123 0.478516ZM6.44003 17.3425H9.93763V11.7713C9.93763 10.3025 10.216 8.87852 12.0368 8.87852C13.832 8.87852 13.8576 10.5585 13.8576 11.8673V17.3457H17.352V11.1633C17.352 8.12971 16.696 5.79692 13.1568 5.79692C11.4544 5.79692 10.312 6.73131 9.84483 7.61771H9.79683V6.07852H6.44003V17.3425Z" fill="white"/>
</svg>
