<svg width="18" height="14" viewBox="0 0 18 14" fill="none" xmlns="http://www.w3.org/2000/svg">
<path d="M15.9835 2.21827L17.3125 0.946961L17.3114 0.666504H12.717L9.44238 8.83677L5.71707 0.667534H0.897846V0.946961L2.45064 2.81629C2.5257 2.88387 2.58378 2.9682 2.62015 3.06244C2.65652 3.15666 2.67015 3.25814 2.65994 3.35863V10.707C2.68221 10.8376 2.67349 10.9717 2.63445 11.0984C2.5954 11.2249 2.52714 11.3407 2.43517 11.436L0.6875 13.5549V13.8333H5.63871V13.5549L3.89207 11.436C3.79935 11.3407 3.72953 11.2255 3.6879 11.0992C3.64629 10.973 3.63394 10.8389 3.65183 10.707V4.35262L7.99775 13.8342H8.50299L12.2355 4.35262V11.9103C12.2355 12.1103 12.2355 12.1496 12.1035 12.2815L10.76 13.5849V13.8632H17.2796V13.5849L15.9835 12.3125C15.9274 12.2696 15.884 12.2124 15.8581 12.1467C15.8321 12.0812 15.8245 12.0098 15.836 11.9403V2.59049C15.8245 2.52091 15.8321 2.44951 15.8581 2.38393C15.884 2.31836 15.9274 2.2611 15.9835 2.21827Z" fill="white"/>
</svg>
