<svg width="14" height="11" viewBox="0 0 14 11" fill="none" xmlns="http://www.w3.org/2000/svg">
<path d="M12.1457 1.4769L13.125 0.540149L13.1242 0.333496H9.73887L7.32597 6.35369L4.581 0.334255H1.02999V0.540149L2.17415 1.91755C2.22947 1.96734 2.27226 2.02948 2.29906 2.09892C2.32586 2.16835 2.3359 2.24312 2.32837 2.31717V7.73176C2.34479 7.82801 2.33836 7.92683 2.30959 8.02016C2.28082 8.11338 2.23053 8.19866 2.16275 8.26889L0.875 9.83024V10.0353H4.52326V9.83024L3.23626 8.26889C3.16794 8.19866 3.11649 8.11384 3.08582 8.02074C3.05516 7.92776 3.04606 7.82894 3.05924 7.73176V3.04958L6.2615 10.036H6.63378L9.38408 3.04958V8.61843C9.38408 8.76578 9.38408 8.79471 9.28678 8.89189L8.29687 9.85229V10.0574H13.1007V9.85229L12.1457 8.91476C12.1044 8.88314 12.0724 8.84103 12.0533 8.79261C12.0342 8.74431 12.0286 8.69169 12.0371 8.64048V1.75117C12.0286 1.6999 12.0342 1.64729 12.0533 1.59897C12.0724 1.55066 12.1044 1.50846 12.1457 1.4769Z" fill="#1206FA"/>
</svg>
